<?xml version="1.0" encoding="UTF-8" standalone="no"?>
<!-- Created with Inkscape (http://www.inkscape.org/) -->

<svg
   width="52.916668mm"
   height="30.891106mm"
   viewBox="0 0 52.916668 30.891106"
   version="1.1"
   id="svg980"
   inkscape:version="1.2.2 (732a01da63, 2022-12-09)"
   sodipodi:docname="logoPure.svg"
   xmlns:inkscape="http://www.inkscape.org/namespaces/inkscape"
   xmlns:sodipodi="http://sodipodi.sourceforge.net/DTD/sodipodi-0.dtd"
   xmlns="http://www.w3.org/2000/svg"
   xmlns:svg="http://www.w3.org/2000/svg">
  <sodipodi:namedview
     id="namedview982"
     pagecolor="#505050"
     bordercolor="#ffffff"
     borderopacity="1"
     inkscape:showpageshadow="0"
     inkscape:pageopacity="0"
     inkscape:pagecheckerboard="1"
     inkscape:deskcolor="#505050"
     inkscape:document-units="mm"
     showgrid="false"
     inkscape:zoom="2.587745"
     inkscape:cx="92.744843"
     inkscape:cy="116.89715"
     inkscape:window-width="1718"
     inkscape:window-height="1368"
     inkscape:window-x="1713"
     inkscape:window-y="0"
     inkscape:window-maximized="0"
     inkscape:current-layer="layer1" />
  <defs
     id="defs977">
    <clipPath
       clipPathUnits="userSpaceOnUse"
       id="clipPath78666">
      <rect
         style="fill:#1d6434;fill-opacity:0.494152;stroke:none;stroke-width:4.31133"
         id="rect78668"
         width="74.414062"
         height="167.43164"
         x="-707.61047"
         y="-512.75342"
         transform="rotate(-63)" />
    </clipPath>
    <clipPath
       clipPathUnits="userSpaceOnUse"
       id="clipPath5225">
      <ellipse
         style="display:none;fill:#00ffff;fill-opacity:0.176039;stroke-width:0.798301"
         id="ellipse5227"
         cx="126.37682"
         cy="331.12463"
         rx="39.113197"
         ry="60.44109"
         d="m 165.49002,331.12463 a 39.113197,60.44109 0 0 1 -39.1132,60.44109 39.113197,60.44109 0 0 1 -39.113194,-60.44109 39.113197,60.44109 0 0 1 39.113194,-60.44109 39.113197,60.44109 0 0 1 39.1132,60.44109 z" />
      <path
         id="lpe_path-effect5229"
         style="fill:#00ffff;fill-opacity:0.176039;stroke-width:0.798301"
         class="powerclip"
         d="M 82.845066,307.61638 H 169.6255 v 93.86563 H 82.845066 Z m 82.644954,23.50825 a 39.113197,60.44109 0 0 0 -39.1132,-60.44109 39.113197,60.44109 0 0 0 -39.113194,60.44109 39.113197,60.44109 0 0 0 39.113194,60.44109 39.113197,60.44109 0 0 0 39.1132,-60.44109 z" />
    </clipPath>
    <inkscape:path-effect
       effect="powerclip"
       id="path-effect5229"
       is_visible="true"
       lpeversion="1"
       inverse="true"
       flatten="false"
       hide_clip="false"
       message="Use fill-rule evenodd on &lt;b&gt;fill and stroke&lt;/b&gt; dialog if no flatten result after convert clip to paths." />
  </defs>
  <g
     inkscape:label="Layer 1"
     inkscape:groupmode="layer"
     id="layer1"
     transform="translate(-66.276871,-56.234132)">
    <g
       id="g1278">
      <path
         d="m 68.376666,68.787646 c 0.590818,-0.185263 1.180209,-0.375284 1.77269,-0.55492 1.545113,-0.468551 3.096801,-0.91309 4.737952,-0.800015 0.610153,0.04216 1.216421,0.138909 1.825781,0.196595 0.22972,0.02179 0.463241,0.0036 0.722676,0.0036 -2.669695,2.430465 -6.746701,3.38674 -11.158894,1.397169 0.01586,-0.0233 0.02591,-0.05729 0.0462,-0.06521 0.868081,-0.341448 1.605097,-0.887495 2.325235,-1.465554 1.141461,-0.91634 2.472384,-1.380768 3.900617,-1.617301 1.036228,-0.171715 2.066118,-0.176072 3.096087,0.03225 0.04612,0.0093 0.09073,0.02575 0.140811,0.0622 -2.836971,-0.05293 -5.184314,1.2249 -7.479597,2.645447 0.02354,0.05523 0.04699,0.11054 0.07045,0.16577"
         style="fill:#80cc28;fill-opacity:1;fill-rule:nonzero;stroke:none;stroke-width:0.0792406"
         id="path13048" />
      <path
         d="m 79.044895,70.493752 c 0.5092,-0.334871 1.047719,-0.613004 1.664051,-0.656271 0.353334,-0.0248 0.712294,0.02948 1.148672,0.05238 -0.322037,0.291051 -0.570851,0.499059 -0.799936,0.726874 -0.416645,0.41419 -0.70429,0.911187 -0.805797,1.490119 -0.04731,0.27021 -0.194615,0.317992 -0.389784,0.250874 -0.395727,-0.136134 -0.779412,-0.307214 -1.17086,-0.465061 -0.03946,0.08621 -0.02464,0.07282 0.611184,0.772595 0.293033,0.322588 0.631944,0.308404 1.013409,0.268149 0.05618,0.12853 0.109746,0.251113 0.162047,0.370767 -0.875608,0.473781 -2.009383,-0.175438 -2.049239,-1.140746 -0.02219,-0.536301 0.144297,-1.010397 0.457771,-1.438929 0.05832,-0.07964 0.113554,-0.161414 0.17021,-0.242239 z"
         style="fill:#1d6434;fill-opacity:1;fill-rule:nonzero;stroke:none;stroke-width:0.0792406"
         id="path12992" />
      <path
         d="m 100.23841,86.411238 c 0.6375,-0.457218 1.10549,-1.064358 1.56548,-1.687981 0.66942,-0.907622 1.36104,-1.800108 2.07285,-2.674845 1.00469,-1.234648 1.63014,-2.683084 2.3632,-4.072329 1.08091,-2.048609 1.83227,-4.229863 2.45717,-6.44424 0.44113,-1.563415 0.67948,-3.184757 0.99106,-4.783674 0.13217,-0.67814 0.23288,-1.363173 0.32441,-2.04821 0.11925,-0.892723 9e-4,-1.75589 -0.38994,-2.574366 -0.0256,-0.05349 -0.0552,-0.105391 -0.087,-0.155391 -0.54605,-0.859125 -0.96911,-0.914199 -1.77776,-0.365774 -0.7478,0.507059 -1.3047,1.18425 -1.66516,2.008589 -0.4035,0.922915 -0.83908,1.839333 -1.14305,2.795924 -0.26759,0.842089 -0.35056,1.741073 -0.55524,2.605429 -0.30697,1.296615 -0.49906,2.605034 -0.43867,3.937385 0.0907,2.002012 0.34303,3.990634 1.04035,5.873467 0.24255,0.654846 -0.0615,1.019272 -0.32505,1.585208 -0.1958,-0.445886 -0.37599,-0.811501 -0.5195,-1.190904 -0.48693,-1.286631 -0.9138,-2.5941 -1.13615,-3.954343 -0.1145,-0.700963 -0.18701,-1.414445 -0.20523,-2.124122 -0.0332,-1.295028 -0.0522,-2.593067 -2.6e-4,-3.886748 0.0401,-1.000335 0.30579,-1.968734 0.69953,-2.896086 0.57149,-1.345663 1.09012,-2.716524 1.72356,-4.032235 0.38297,-0.795337 0.82648,-1.623321 1.44583,-2.229036 0.97299,-0.951521 2.19456,-1.218245 3.15512,-0.150873 0.90065,1.000647 1.44424,2.185295 1.52498,3.530006 0.0476,0.793912 -0.0754,1.59654 -0.083,2.39568 -0.0177,1.864135 -0.76301,3.554257 -1.22047,5.315139 -0.39287,1.511753 -0.78939,3.019622 -1.35826,4.475746 -0.1649,0.422193 -0.37552,0.827192 -0.57798,1.233775 -0.60325,1.211905 -1.12545,2.475714 -1.84329,3.616142 -0.81911,1.301368 -1.80043,2.502736 -2.73863,3.726527 -0.61871,0.806984 -1.34265,1.511828 -2.29893,1.920711 -0.31308,0.133916 -0.6451,0.223695 -0.96848,0.33368 -0.0105,-0.0275 -0.0209,-0.05483 -0.0314,-0.08225"
         style="fill:#80cc28;fill-opacity:1;fill-rule:nonzero;stroke:none;stroke-width:0.0792406"
         id="path12996" />
      <path
         d="m 105.83307,81.626472 c 0.34882,0.666096 0.66198,1.336947 1.04376,1.966116 0.23249,0.383129 0.5329,0.746923 0.87347,1.036468 0.29604,0.251509 0.69114,0.386614 0.94883,0.523463 -0.58432,0.06823 -1.42602,-0.233999 -1.92904,-0.876242 -0.47948,-0.612135 -0.87267,-1.292256 -1.29487,-1.948289 -0.0376,-0.05856 -0.0412,-0.181301 -0.004,-0.237642 0.1111,-0.170764 0.24985,-0.323539 0.36229,-0.463874"
         style="fill:#80cc28;fill-opacity:1;fill-rule:nonzero;stroke:none;stroke-width:0.0792406"
         id="path13004" />
      <path
         d="m 95.617619,79.221084 c -0.132807,0.226627 -0.270764,0.462131 -0.457059,0.780044 -0.131698,-0.25254 -0.26189,-0.42774 -0.319102,-0.624178 -0.364587,-1.250811 -0.799855,-2.489817 -1.043519,-3.764876 -0.27021,-1.414048 -0.428216,-2.859792 -0.329084,-4.309579 0.132805,-1.942978 0.28368,-3.884371 0.938603,-5.744703 0.281542,-0.799772 0.470213,-1.637107 0.806905,-2.411369 0.399215,-0.91792 0.981713,-1.739725 1.676097,-2.470244 0.477582,-0.502464 1.063648,-0.751516 1.761439,-0.674971 0.635351,0.06965 0.996688,0.515777 1.320544,1.005484 0.560387,0.847319 0.781227,1.811596 0.935597,2.79109 0.27274,1.73196 0.19485,3.466299 0.0379,5.206659 -0.12401,1.376805 -0.60991,2.653053 -0.96182,3.967179 -0.33709,1.259131 -0.731628,2.498931 -1.406994,3.627553 -0.436855,0.730043 -0.894785,1.447804 -1.318722,2.185059 -0.974263,1.694321 -2.092665,3.289829 -3.329293,4.798569 -0.809918,0.988368 -1.720391,1.887352 -2.770882,2.627934 -0.446126,0.314507 -0.93599,0.5405 -1.515239,0.574572 0.212682,-0.196119 0.440735,-0.378056 0.635431,-0.590579 0.948509,-1.035437 1.889015,-2.078241 2.830788,-3.11986 1.293841,-1.431164 2.395046,-2.995371 3.267089,-4.719171 0.688998,-1.361747 1.243127,-2.777143 1.715794,-4.226928 0.396603,-1.216818 0.871171,-2.41224 1.19471,-3.647602 0.251273,-0.959603 0.329165,-1.965244 0.471799,-2.952264 0.08328,-0.576555 0.154915,-1.155406 0.209435,-1.73529 0.119334,-1.268007 -0.0359,-2.491322 -0.669903,-3.619073 -0.219415,-0.390419 -0.496995,-0.746606 -1.019428,-0.654607 -0.166168,0.02924 -0.364982,0.133758 -0.458722,0.26712 -0.367442,0.523067 -0.738921,1.050254 -1.036469,1.614128 -1.16753,2.212161 -1.818015,4.585652 -2.096705,7.062713 -0.14279,1.268482 -0.245723,2.540689 -0.130825,3.820424 0.106182,1.184963 0.310702,2.350196 0.623702,3.498549 0.110778,0.406585 0.167911,0.827669 0.263476,1.238926 0.01592,0.06878 0.10325,0.120922 0.174407,0.199291"
         style="fill:#80cc28;fill-opacity:1;fill-rule:nonzero;stroke:none;stroke-width:0.0792406"
         id="path13008" />
      <path
         d="m 99.269651,85.302877 c -0.412841,0.09866 -0.790661,0.01712 -1.148591,-0.174567 -0.865942,-0.463636 -1.401371,-1.228783 -1.857718,-2.061204 -0.194614,-0.354761 -0.354837,-0.729253 -0.562052,-1.076008 -0.113393,-0.189701 -0.0893,-0.322987 0.03835,-0.47576 0.118304,-0.141605 0.226706,-0.291606 0.367279,-0.473781 0.642482,1.76017 1.332193,3.435474 3.162729,4.26132"
         style="fill:#80cc28;fill-opacity:1;fill-rule:nonzero;stroke:none;stroke-width:0.0792406"
         id="path13016" />
      <path
         d="m 83.404939,73.406849 -0.0092,0.01228 c 0.08352,-0.149922 0.20214,-0.290654 0.244296,-0.451433 0.149211,-0.56871 0.08717,-1.133298 -0.09564,-1.686952 -0.05151,-0.156104 -0.108085,-0.310545 -0.162285,-0.465777 -0.07908,0.04802 -0.107214,0.08376 -0.102379,0.114185 0.084,0.521484 0.08447,1.036785 -0.08012,1.546301 -0.03225,0.09968 -0.02615,0.211811 -0.03772,0.318231 -0.117436,0.155787 -0.234947,0.311495 -0.352383,0.467201 -0.291842,0.102696 -0.583766,0.205391 -0.875688,0.308167 -0.0051,0.03383 -0.01015,0.06767 -0.0153,0.101587 0.245885,0.06141 0.489315,0.157847 0.738288,0.175677 0.329638,0.02369 0.612132,-0.10032 0.748107,-0.43947 m -2.003677,12.278562 c 0.267438,0.03788 0.534478,0.07797 0.802231,0.113235 1.693451,0.223221 3.177625,-0.295251 4.531849,-1.277754 1.605333,-1.16444 2.81811,-2.649328 3.625966,-4.459342 0.119178,-0.266882 0.164901,-0.565857 0.256661,-0.845972 0.0416,-0.126785 0.112759,-0.243903 0.154915,-0.332652 -0.03986,-0.126784 -0.106577,-0.239781 -0.105468,-0.352223 0.006,-0.593117 0.04968,-1.186389 0.04152,-1.779031 -0.01561,-1.126087 -0.210777,-2.217389 -0.685826,-3.25108 -0.573463,-1.247643 -1.220623,-2.437995 -2.257326,-3.380483 -0.847319,-0.770218 -1.789887,-1.253108 -2.966687,-1.193362 -0.680439,0.03455 -1.216344,0.374413 -1.733307,0.766178 -0.124803,0.09461 -0.115135,0.183124 0.0089,0.284235 1.106036,0.901916 1.351843,2.456537 0.81808,3.759331 -0.237564,0.579803 -0.574573,0.812771 -1.22498,0.639471 -0.970697,-0.25864 -1.70605,-0.893041 -1.980223,-1.906607 -0.231936,-0.856907 0.433526,-2.016752 1.289719,-2.321509 0.446599,-0.159038 0.728856,-0.453257 0.866181,-0.899303 0.116721,-0.379165 0.373381,-0.560072 0.765938,-0.642325 0.573465,-0.120286 1.129257,-0.137006 1.702008,-0.0034 0.113947,0.02655 0.270924,-0.131776 0.40809,-0.204756 -0.07425,-0.0878 -0.131541,-0.205473 -0.225442,-0.258642 -1.108336,-0.627823 -2.290685,-1.067371 -3.528423,-1.362302 -0.03653,-0.0086 -0.07021,-0.02924 -0.105229,-0.04438 0.0046,-0.02964 0.0092,-0.05927 0.0137,-0.08891 0.733212,0.102063 1.476092,0.159432 2.197499,0.315696 1.39812,0.302777 2.74529,0.777509 3.955846,1.551053 1.323555,0.845736 2.298533,1.99932 2.92271,3.460199 0.363872,0.851676 0.762294,1.685051 0.958651,2.596553 0.342003,1.587584 0.459278,3.194902 0.251193,4.802931 -0.177341,1.370702 -0.668315,2.634509 -1.375934,3.846414 -0.782657,1.340433 -1.856129,2.255106 -3.255676,2.856781 -0.766494,0.329483 -1.531641,0.665938 -2.377218,0.668077 -0.529009,0.0013 -1.074581,-0.0355 -1.583226,-0.168465 -0.673306,-0.175915 -1.318484,-0.460627 -1.973722,-0.703893 -0.07663,-0.02845 -0.140732,-0.09081 -0.210702,-0.137564 0.0059,-0.01545 0.01188,-0.03082 0.01774,-0.0462"
         style="fill:#80cc28;fill-opacity:1;fill-rule:nonzero;stroke:none;stroke-width:0.0792406"
         id="path13020" />
      <path
         d="m -616.48003,422.67053 -0.071,0.0949 c 0.64522,-1.15824 1.56166,-2.24548 1.88734,-3.48759 1.15274,-4.39363 0.67341,-8.75542 -0.73889,-13.03273 -0.39793,-1.206 -0.83502,-2.39915 -1.25375,-3.59841 -0.61096,0.37099 -0.82829,0.64708 -0.79094,0.88215 0.64892,4.02878 0.65258,8.00979 -0.61894,11.94611 -0.24914,0.77012 -0.20201,1.63637 -0.29139,2.45853 -0.90726,1.20355 -1.81511,2.40649 -2.72237,3.60941 -2.25466,0.79339 -4.50995,1.58677 -6.76522,2.38078 -0.0392,0.26139 -0.0784,0.5228 -0.11817,0.78482 1.89961,0.47443 3.78025,1.21946 5.70372,1.35721 2.54665,0.18304 4.72909,-0.77503 5.77958,-3.39517 m -15.47962,94.85933 c 2.06612,0.29263 4.12917,0.6024 6.19772,0.87481 13.08294,1.72452 24.54908,-2.28099 35.01128,-9.87142 12.40217,-8.99601 21.77161,-20.46767 28.01279,-34.45112 0.92072,-2.06183 1.27396,-4.37159 1.98286,-6.53565 0.3214,-0.97949 0.87113,-1.8843 1.19681,-2.56994 -0.30791,-0.97948 -0.82337,-1.85245 -0.8148,-2.72113 0.046,-4.58219 0.38383,-9.16558 0.32077,-13.7441 -0.1206,-8.6997 -1.62838,-17.13067 -5.29842,-25.11656 -4.43035,-9.6388 -9.43005,-18.83499 -17.43921,-26.11628 -6.54605,-5.9504 -13.82796,-9.68102 -22.91946,-9.21945 -5.2568,0.26691 -9.39699,2.89257 -13.39084,5.91919 -0.96418,0.73095 -0.88949,1.41475 0.0686,2.19589 8.5448,6.96785 10.44381,18.97824 6.32016,29.04311 -1.83532,4.47933 -4.43892,6.27915 -9.46371,4.9403 -7.49922,-1.99815 -13.18027,-6.89928 -15.29842,-14.72969 -1.79185,-6.62013 3.34925,-15.58063 9.96386,-17.93507 3.45025,-1.22866 5.63085,-3.50168 6.69177,-6.94766 0.90174,-2.92928 2.8846,-4.32689 5.91734,-4.96235 4.43036,-0.92928 8.72419,-1.05845 13.14904,-0.0264 0.88031,0.20509 2.09305,-1.01805 3.15274,-1.58187 -0.57362,-0.6783 -1.01623,-1.5874 -1.74167,-1.99816 -8.56257,-4.85032 -17.69693,-8.24609 -27.25921,-10.52461 -0.28221,-0.0668 -0.54239,-0.22591 -0.81296,-0.34283 0.0356,-0.22896 0.071,-0.45792 0.10585,-0.68688 5.66451,0.7885 11.40371,1.23171 16.97701,2.43894 10.80133,2.33914 21.20903,6.00673 30.56131,11.98283 10.22527,6.53382 17.75756,15.44596 22.57971,26.73213 2.81113,6.57972 5.88918,13.01804 7.40616,20.05995 2.64218,12.26505 3.5482,24.68255 1.94062,37.10555 -1.37007,10.58951 -5.16314,20.35318 -10.62993,29.71588 -6.0465,10.35566 -14.33972,17.42206 -25.15207,22.07037 -5.92163,2.54545 -11.83285,5.14477 -18.36545,5.1613 -4.08691,0.0104 -8.30179,-0.27426 -12.23138,-1.3015 -5.2017,-1.35905 -10.18609,-3.55862 -15.2482,-5.438 -0.59198,-0.21978 -1.08724,-0.70157 -1.6278,-1.06276 0.0453,-0.11939 0.0918,-0.23814 0.13709,-0.3569"
         style="fill:#1d6434;fill-opacity:1;fill-rule:nonzero;stroke:none;stroke-width:0.612182"
         id="path13020-9"
         clip-path="url(#clipPath78666)"
         transform="matrix(0.12943968,0,0,0.12943968,163.20192,18.696511)" />
      <path
         d="m 85.990121,73.23305 c 0.0075,-0.0083 0.01514,-0.01649 0.02314,-0.02425 0.255235,-0.229877 0.352859,-0.518945 0.389783,-0.859284 0.08685,-0.800488 -0.790422,-1.784023 -1.823006,-1.745589 -0.06569,0.0024 -0.130113,0.03621 -0.278135,0.07995 1.328547,0.626792 1.780694,1.570389 1.375776,2.938002 0.1042,-0.129636 0.208323,-0.259196 0.312445,-0.388833 m -1.753355,0.419262 c 0.555159,-1.27601 0.443589,-2.450278 -0.355395,-3.586665 0.737175,-0.108956 1.366662,0.03383 1.934183,0.414031 0.737253,0.493827 1.214123,1.171651 1.259054,2.076975 0.06086,1.226881 -0.768319,1.733863 -1.870555,1.504618 -0.327658,-0.06815 -0.629089,-0.261969 -0.967287,-0.408959"
         style="fill:#1d6434;fill-opacity:1;fill-rule:nonzero;stroke:none;stroke-width:0.0792406"
         id="path13024" />
      <path
         d="m 90.849335,58.355248 c -0.108084,0.16078 -0.206501,0.283762 -0.280037,0.420134 -0.463477,0.860156 -0.918952,1.72459 -1.382349,2.584748 -0.210862,0.391605 -0.441927,0.772436 -0.649062,1.165867 -0.266326,0.505792 -0.690501,0.827667 -1.187974,1.075215 -1.671184,0.831786 -3.453542,1.230287 -5.303809,1.365233 -0.02805,0.002 -0.05705,-0.009 -0.118385,-0.01956 0.02076,-0.07631 0.03209,-0.148972 0.05967,-0.214822 0.522273,-1.248909 1.355566,-2.163504 2.695209,-2.561372 0.896131,-0.266168 1.675618,-0.735036 2.336882,-1.40858 0.35587,-0.362444 0.53638,-0.799299 0.667603,-1.267691 0.02022,-0.07203 -0.04224,-0.167197 -0.06648,-0.251588 -0.03685,-0.02028 -0.0737,-0.04049 -0.110541,-0.06062 -0.06411,0.09921 -0.161571,0.190652 -0.186928,0.298975 -0.161493,0.690105 -0.730677,0.994547 -1.268403,1.287737 -0.63115,0.344141 -1.305251,0.610549 -1.965165,0.900332 -0.635432,0.279086 -1.171335,0.694622 -1.657712,1.179416 -0.460548,0.458963 -0.913722,0.925213 -1.415002,1.433699 0.308564,-1.515871 1.857953,-3.247754 3.904502,-4.616477 1.791943,-1.198434 3.786429,-1.454142 5.927984,-1.310637"
         style="fill:#80cc28;fill-opacity:1;fill-rule:nonzero;stroke:none;stroke-width:0.0792406"
         id="path13032" />
      <path
         d="m 79.407628,64.432277 c -0.08439,-0.03415 -0.172903,-0.06086 -0.252699,-0.103567 -0.697318,-0.373461 -1.21357,-0.931473 -1.672134,-1.568569 -0.693039,-0.96293 -1.399072,-1.918808 -2.14742,-2.838871 -0.471798,-0.579961 -1.102395,-0.991933 -1.794639,-1.285204 -0.115375,-0.04897 -0.290101,-0.03138 -0.40904,0.02053 -0.136928,0.05975 -0.261732,0.199451 -0.05119,0.333761 0.887892,0.566651 1.396933,1.432353 1.880141,2.327771 0.535905,0.993123 1.085437,1.98252 1.891474,2.791964 0.31815,0.319497 0.668948,0.606506 1.067132,0.964277 -0.66586,-0.163235 -1.191779,-0.444777 -1.69147,-0.772199 -1.881645,-1.233063 -3.176199,-2.907178 -3.847446,-5.069573 -0.241999,-0.779807 -0.572908,-1.533226 -0.887415,-2.288625 -0.09596,-0.230273 -0.272667,-0.426949 -0.45904,-0.70984 0.233442,0.05325 0.397786,0.09667 0.564351,0.127975 3.021126,0.567758 5.077261,2.391162 6.500656,5.020522 0.413478,0.763802 0.777983,1.554383 1.151762,2.339024 0.09612,0.201667 0.142316,0.427106 0.211414,0.64169 z"
         style="fill:#80cc28;fill-opacity:1;fill-rule:nonzero;stroke:none;stroke-width:0.0792406"
         id="path13036" />
      <path
         d="m 119.19354,83.335635 c -0.083,0.966021 -0.61578,1.711992 -1.40256,1.949794 -0.52576,0.158956 -1.04241,0.104755 -1.51706,-0.17853 -1.49709,-0.893595 -2.4334,-2.16588 -2.66565,-3.926527 -0.14572,-1.104694 -0.1397,-2.207802 -0.0711,-3.315822 0.0391,-0.632022 0.0456,-1.266027 0.0645,-1.899157 0.0247,-0.831077 0.0532,-1.662151 0.0638,-2.493463 0.002,-0.12948 0.1191,-0.381464 -0.13075,-0.373937 -0.20689,0.0063 -0.34588,0.184947 -0.36601,0.431544 -0.032,0.391765 -0.0289,0.801994 -0.14992,1.168323 -0.58805,1.781169 -1.58664,3.26685 -3.23389,4.2446 -0.26292,0.155944 -0.56102,0.252539 -0.84336,0.35373 2.29988,-2.543147 3.71773,-5.47164 4.06132,-8.965515 0.2985,0.386535 0.52893,0.676162 0.7497,0.972916 0.3733,0.501751 0.82196,0.908651 1.41793,1.12482 0.16291,0.05911 0.20238,0.150477 0.18637,0.312128 -0.15611,1.573401 -0.31966,3.146246 -0.45524,4.721391 -0.13154,1.528549 -0.1004,3.052819 0.4577,4.50641 0.32401,0.843992 0.91047,1.501687 1.70818,1.950031 0.57323,0.322034 1.1169,0.272746 1.62111,-0.155946 0.16363,-0.139147 0.32813,-0.277342 0.50492,-0.42679"
         style="fill:#80cc28;fill-opacity:1;fill-rule:nonzero;stroke:none;stroke-width:0.0792406"
         id="path13040" />
      <path
         d="m 77.68284,69.862331 c -1.302,1.775703 -1.726968,3.825577 -1.668489,5.942013 0.05808,2.101617 0.474652,4.14745 1.575462,6.016179 1.106118,1.877843 2.858049,3.02374 4.587712,4.212904 -0.02132,0.03114 -0.04255,0.0622 -0.06387,0.09327 -0.194773,-0.1023 -0.391685,-0.200795 -0.584002,-0.307613 -1.536319,-0.853261 -3.001872,-1.820314 -4.271699,-3.034359 -1.287977,-1.231397 -2.097976,-2.74188 -2.212477,-4.559816 -0.04406,-0.699298 -0.05468,-1.401766 -0.0542,-2.102729 0.0016,-2.25162 0.811582,-4.201573 2.23704,-5.917447 0.117275,-0.141207 0.222348,-0.292477 0.333125,-0.439071 z"
         style="fill:#80cc28;fill-opacity:1;fill-rule:nonzero;stroke:none;stroke-width:0.0792406"
         id="path13044" />
      <path
         d="m 116.26474,67.85993 c 0.0429,-0.0397 0.0937,-0.07369 0.12726,-0.12005 0.6821,-0.937494 0.42069,-2.375078 -0.46974,-3.171921 -0.0361,-0.03233 -0.0993,-0.03423 -0.21197,-0.07005 0.0395,0.119733 0.0502,0.192792 0.085,0.251669 0.26079,0.4401 0.36602,0.9245 0.32117,1.422208 -0.0342,0.378692 -0.15611,0.749457 -0.23899,1.123792 -0.1756,0.235739 -0.35104,0.471479 -0.52663,0.707221 -0.20619,0.06418 -0.41705,0.116721 -0.61563,0.199131 -0.065,0.02702 -0.10792,0.127182 -0.13882,0.203016 -0.008,0.01871 0.0765,0.109429 0.10982,0.104833 0.33274,-0.04564 0.70168,0.06751 0.98354,-0.211413 0.19168,-0.1462 0.38336,-0.29232 0.57497,-0.438438 m 0.88836,-1.872772 c -0.0132,1.271337 -0.18582,2.084502 -0.65326,2.815338 -0.39176,0.612371 -1.07442,0.727904 -1.69852,0.352463 -0.5214,-0.313635 -0.80722,-0.785751 -0.989,-1.325061 -0.44501,-1.320307 -0.39818,-2.619058 0.21371,-3.891582 0.52474,-1.09146 1.64662,-0.939397 2.24045,-0.275917 0.45976,0.513637 0.90611,1.582037 0.88662,2.324759"
         style="fill:#80cc28;fill-opacity:1;fill-rule:nonzero;stroke:none;stroke-width:0.0792406"
         id="path13052" />
      <path
         d="m 82.646891,69.477943 c 0.07639,-0.0206 0.12829,0.02694 0.303175,0.124012 0.209194,0.116166 0.256105,0.115373 0.261811,0.15848 0.01235,0.09271 -0.185345,0.246914 -0.372034,0.220526 -0.201984,-0.0286 -0.360781,-0.264187 -0.310149,-0.399689 0.0184,-0.04913 0.06601,-0.08954 0.117197,-0.103329"
         style="fill:#231f20;fill-opacity:1;fill-rule:nonzero;stroke:none;stroke-width:0.0792406"
         id="path13088" />
      <path
         style="fill:#80cc28;fill-opacity:1;stroke-width:0.658758"
         id="path4443-3-0"
         clip-path="url(#clipPath5225)"
         inkscape:path-effect="#path-effect5229"
         sodipodi:type="arc"
         sodipodi:cx="126.23528"
         sodipodi:cy="354.54919"
         sodipodi:rx="38.390217"
         sodipodi:ry="41.932812"
         d="m 164.6255,354.54919 a 38.390217,41.932812 0 0 1 -38.39022,41.93282 38.390217,41.932812 0 0 1 -38.390214,-41.93282 38.390217,41.932812 0 0 1 38.390214,-41.93281 38.390217,41.932812 0 0 1 38.39022,41.93281 z"
         transform="matrix(0.2246189,0,0,0.2246189,55.274503,-1.9321149)" />
    </g>
  </g>
</svg>
